<svg version="1.1" id="Layer_1" xmlns="http://www.w3.org/2000/svg" xmlns:xlink="http://www.w3.org/1999/xlink" x="0px" y="0px"
	 width="100%" viewBox="0 0 1080 1080" enable-background="new 0 0 1080 1080" xml:space="preserve">
<path fill="#FFFFFF" opacity="1.000000" stroke="none" 
	d="
M718.000000,1081.000000 
	C478.694214,1081.000000 239.888458,1081.000000 1.041340,1081.000000 
	C1.041340,721.069092 1.041340,361.138214 1.041340,1.103653 
	C360.889343,1.103653 720.778687,1.103653 1080.833984,1.103653 
	C1080.833984,360.999939 1080.833984,720.999939 1080.833984,1081.000000 
	C960.137756,1081.000000 839.318909,1081.000000 718.000000,1081.000000 
M527.500183,982.983032 
	C554.044495,983.316406 580.393250,981.201660 606.604980,977.001221 
	C646.755066,970.567383 685.189148,958.669189 721.680908,940.758057 
	C780.406677,911.933533 829.009949,870.539551 869.592590,819.630493 
	C925.337830,749.700806 955.172607,669.425903 962.804260,580.708801 
	C966.515381,537.567139 965.161682,494.532471 958.171753,451.690216 
	C950.614990,405.373718 936.511780,361.227814 914.385254,319.874359 
	C877.276001,250.518738 825.426208,194.415207 759.636169,151.395370 
	C695.515869,109.467369 624.509216,89.180244 548.338867,86.170036 
	C516.818115,84.924355 485.442810,86.709221 454.235596,91.874283 
	C406.353088,99.799248 361.278625,115.485130 319.128998,139.493866 
	C273.221130,165.643326 233.743149,199.556046 199.230789,239.407913 
	C165.715378,278.108673 139.453232,321.167816 121.367722,369.120148 
	C105.341179,411.613251 96.454163,455.599121 93.761406,500.909393 
	C90.699638,552.428955 94.073677,603.425415 106.048965,653.698547 
	C128.472061,747.832214 177.581696,825.527832 251.368408,887.729980 
	C292.021210,922.000305 337.942291,946.914246 388.720947,962.774658 
	C433.574829,976.784424 479.619659,982.749207 527.500183,982.983032 
z"/>
<path fill="#000000" opacity="1.000000" stroke="none" 
	d="
M527.000244,982.978638 
	C479.619659,982.749207 433.574829,976.784424 388.720947,962.774658 
	C337.942291,946.914246 292.021210,922.000305 251.368408,887.729980 
	C177.581696,825.527832 128.472061,747.832214 106.048965,653.698547 
	C94.073677,603.425415 90.699638,552.428955 93.761406,500.909393 
	C96.454163,455.599121 105.341179,411.613251 121.367722,369.120148 
	C139.453232,321.167816 165.715378,278.108673 199.230789,239.407913 
	C233.743149,199.556046 273.221130,165.643326 319.128998,139.493866 
	C361.278625,115.485130 406.353088,99.799248 454.235596,91.874283 
	C485.442810,86.709221 516.818115,84.924355 548.338867,86.170036 
	C624.509216,89.180244 695.515869,109.467369 759.636169,151.395370 
	C825.426208,194.415207 877.276001,250.518738 914.385254,319.874359 
	C936.511780,361.227814 950.614990,405.373718 958.171753,451.690216 
	C965.161682,494.532471 966.515381,537.567139 962.804260,580.708801 
	C955.172607,669.425903 925.337830,749.700806 869.592590,819.630493 
	C829.009949,870.539551 780.406677,911.933533 721.680908,940.758057 
	C685.189148,958.669189 646.755066,970.567383 606.604980,977.001221 
	C580.393250,981.201660 554.044495,983.316406 527.000244,982.978638 
M425.139221,299.645477 
	C410.766174,307.205963 397.501831,316.402740 385.940887,327.786499 
	C339.548340,373.468018 315.513214,429.815765 308.079498,493.722290 
	C303.565033,532.531860 305.537140,571.186035 312.959778,609.580078 
	C322.971710,661.367188 344.682922,706.574524 385.282196,741.696777 
	C416.683075,768.861633 452.953400,784.724365 493.918640,789.924438 
	C521.667480,793.446838 549.416016,792.895813 577.026489,787.988220 
	C609.883484,782.148132 639.906555,769.902344 665.525879,748.163635 
	C698.663391,720.045532 719.831970,683.887939 734.087280,643.421509 
	C750.111145,597.934509 754.002441,550.949463 750.202454,503.126678 
	C746.507385,456.625092 733.372559,413.133575 708.884827,373.253723 
	C691.472900,344.897369 669.827515,320.721222 640.834412,303.628357 
	C612.262390,286.783783 581.160156,278.932495 548.352783,276.781158 
	C505.597595,273.977478 464.365112,279.416138 425.139221,299.645477 
z"/>
<path fill="#FFFFFF" opacity="1.000000" stroke="none" 
	d="
M425.450500,299.443146 
	C464.365112,279.416138 505.597595,273.977478 548.352783,276.781158 
	C581.160156,278.932495 612.262390,286.783783 640.834412,303.628357 
	C669.827515,320.721222 691.472900,344.897369 708.884827,373.253723 
	C733.372559,413.133575 746.507385,456.625092 750.202454,503.126678 
	C754.002441,550.949463 750.111145,597.934509 734.087280,643.421509 
	C719.831970,683.887939 698.663391,720.045532 665.525879,748.163635 
	C639.906555,769.902344 609.883484,782.148132 577.026489,787.988220 
	C549.416016,792.895813 521.667480,793.446838 493.918640,789.924438 
	C452.953400,784.724365 416.683075,768.861633 385.282196,741.696777 
	C344.682922,706.574524 322.971710,661.367188 312.959778,609.580078 
	C305.537140,571.186035 303.565033,532.531860 308.079498,493.722290 
	C315.513214,429.815765 339.548340,373.468018 385.940887,327.786499 
	C397.501831,316.402740 410.766174,307.205963 425.450500,299.443146 
z"/>
</svg>